<svg width="70" height="70" viewBox="0 0 70 70" fill="none" xmlns="http://www.w3.org/2000/svg">
<path d="M59.6278 58.9511V40.9943C59.6278 32.2954 57.6216 25.5534 47.2948 25.5534C42.4274 25.5534 38.9741 28.3653 37.5435 30.8977H37.2639V26.4084H27.5127V58.6715H37.5435V42.6715C37.5435 38.4619 38.415 34.2522 43.858 34.2522C49.3174 34.2522 49.3174 39.317 49.3174 42.9511V58.9511H59.6278ZM21.7737 16.0158C21.7737 12.6613 18.896 10.1289 15.7388 10.1289C12.302 10.1289 9.72027 12.9408 9.72027 16.0158C9.72027 19.3869 12.5815 21.9192 15.7388 21.9192C19.192 21.9028 21.7737 19.3704 21.7737 16.0158ZM20.9022 26.392H10.5754V58.9346H20.9022V26.392ZM69.971 5.9028V64.2625C69.971 67.0744 67.6689 69.3108 64.8076 69.3108H5.42839C2.55069 69.3272 0.248535 66.8113 0.248535 64.2789V5.9028C0.248535 3.09087 2.55069 0.854492 5.41195 0.854492H64.7912C67.6689 0.854492 69.971 3.10732 69.971 5.9028Z" fill="#4377DD"/>
</svg>
