<svg width="72" height="70" viewBox="0 0 72 70" fill="none" xmlns="http://www.w3.org/2000/svg">
<path d="M50.4161 16.9194C50.4161 14.568 52.373 12.6605 54.7902 12.6605C57.2075 12.6605 59.1643 14.568 59.1643 16.9194C59.1643 19.2709 57.2239 21.1784 54.8067 21.1784C52.373 21.162 50.4161 19.2545 50.4161 16.9194ZM24.7964 35.1065C24.7964 41.1908 29.8612 46.124 36.1099 46.124C42.3586 46.124 47.4233 41.1908 47.4233 35.1065C47.4233 29.0058 42.3586 24.089 36.1099 24.089C29.8612 24.0726 24.7964 29.0058 24.7964 35.1065ZM18.6628 35.1065C18.6628 25.717 26.4737 18.1199 36.1099 18.1199C45.746 18.1199 53.5569 25.717 53.5569 35.1065C53.5569 44.4796 45.746 52.0931 36.1099 52.0931C26.4737 52.0931 18.6628 44.4796 18.6628 35.1065ZM21.9023 7.23394C19.6659 7.26683 17.4624 7.66148 15.374 8.41791C13.8447 8.96056 12.4634 9.84853 11.3288 10.9832C10.1613 12.0849 9.25685 13.4333 8.69775 14.9133C7.92489 16.9523 7.51379 19.1065 7.4809 21.2771C7.31646 24.8948 7.28357 25.9636 7.28357 35.1065C7.28357 44.2493 7.3329 45.3182 7.49734 48.9194C7.53023 51.09 7.94133 53.2442 8.7142 55.2668C9.27329 56.7632 10.1777 58.0952 11.3452 59.1969C12.4799 60.3316 13.8612 61.2195 15.3905 61.7622C17.4788 62.5186 19.6823 62.9133 21.9187 62.9462C25.6351 63.1106 26.7368 63.1435 36.1263 63.1435C45.5158 63.1435 46.6176 63.1106 50.3339 62.9462C52.5703 62.9133 54.7738 62.5186 56.8622 61.7622C58.3915 61.2195 59.7728 60.348 60.9074 59.1969C62.0749 58.0952 62.9629 56.7468 63.5384 55.2668C64.3113 53.2278 64.7224 51.09 64.7388 48.9194C64.9033 45.3018 64.9362 44.2329 64.9362 35.09C64.9362 25.9472 64.9033 24.8619 64.7388 21.2607C64.706 19.0901 64.2949 16.9359 63.5384 14.8968C62.9793 13.4169 62.0749 12.0685 60.9074 10.9667C59.7728 9.83209 58.3915 8.96056 56.8622 8.40146C54.7738 7.64504 52.5703 7.25038 50.3339 7.2175C46.634 7.05306 45.5158 7.02017 36.1263 7.02017C26.7204 7.03661 25.6022 7.05306 21.9023 7.23394ZM21.6063 69.1127C18.6957 69.0633 15.8016 68.5207 13.0719 67.5176C10.7204 66.6625 8.59909 65.3141 6.85603 63.571C5.06363 61.8609 3.68234 59.7889 2.79436 57.5196C1.77484 54.8557 1.21574 52.0438 1.16641 49.199C1.00197 45.5484 0.952637 44.3809 0.952637 35.09C0.952637 25.7992 0.985525 24.6317 1.16641 20.9811C1.21574 18.1363 1.77484 15.3244 2.79436 12.6605C3.68234 10.3747 5.06363 8.3028 6.85603 6.60907C8.61553 4.866 10.7368 3.5176 13.0719 2.66251C15.8016 1.65943 18.6957 1.13322 21.6063 1.06745C25.3555 0.903005 26.5559 0.870117 36.0934 0.870117C45.6309 0.870117 46.8478 0.903005 50.597 1.06745C53.5076 1.11678 56.4017 1.65943 59.1314 2.66251C61.4829 3.5176 63.6042 4.866 65.3473 6.60907C67.1397 8.31924 68.521 10.3912 69.4089 12.6605C70.4285 15.3244 70.9876 18.1363 71.0533 20.9811C71.2178 24.6317 71.2671 25.7992 71.2671 35.09C71.2671 44.3809 71.2178 45.5484 71.0533 49.199C70.9876 52.0438 70.4285 54.8557 69.4089 57.5196C68.521 59.8054 67.1397 61.8773 65.3473 63.571C63.5878 65.3141 61.4665 66.6625 59.1314 67.5176C56.4017 68.5207 53.5076 69.0469 50.597 69.1127C46.8478 69.2771 45.6474 69.31 36.0934 69.31C26.5395 69.31 25.3555 69.2771 21.6063 69.1127Z" fill="#4377DD"/>
</svg>
